<svg width="40" height="40" viewBox="0 0 40 40" fill="none" xmlns="http://www.w3.org/2000/svg">
<path d="M17.9999 40C12.6566 40 7.63493 37.9199 3.85655 34.1415C3.53154 33.8165 3.53154 33.2883 3.85655 32.9633C4.18156 32.6382 4.70982 32.6382 5.03484 32.9633C8.49828 36.4267 13.1034 38.3334 17.9999 38.3334C22.8965 38.3334 27.5 36.4267 30.9632 32.9633C34.4266 29.5001 36.3334 24.8965 36.3334 20C36.3334 15.1035 34.4266 10.4984 30.9632 7.03491C27.5 3.57178 22.8965 1.66656 17.9999 1.66656C13.1034 1.66656 8.4998 3.5733 5.03667 7.03674C4.71165 7.36176 4.1834 7.36176 3.85838 7.03674C3.53337 6.71173 3.53337 6.18347 3.85838 5.85846C7.63646 2.08008 12.6581 0 17.9999 0C23.3432 0 28.3649 2.08008 32.1433 5.85846C35.9217 9.63654 37.9999 14.6582 37.9999 20C37.9999 25.3418 35.9198 30.3635 32.1415 34.1415C28.3634 37.9199 23.3417 40 17.9999 40V40Z" fill="#16182D"/>
<path d="M10.5 8.33344H3.83344C3.37323 8.33344 3 7.9599 3 7.5V0.833435C3 0.37323 3.37323 0 3.83344 0C4.29333 0 4.66656 0.37323 4.66656 0.833435V6.66656H10.5C10.9599 6.66656 11.3334 7.0401 11.3334 7.5C11.3334 7.9599 10.9599 8.33344 10.5 8.33344Z" fill="#16182D"/>
</svg>
